<svg width="308" height="294" viewBox="0 0 308 294" fill="none" xmlns="http://www.w3.org/2000/svg">
<g clip-path="url(#clip0_3_193)">
<path d="M163.392 197.531H107.041L33.2586 218.811C21.3434 222.224 13.2344 232.83 13.2344 244.705V269.52L182.231 275.496L175.941 201.252L163.392 197.531Z" fill="#9FE8FF"/>
<path d="M175.656 186.047V201.387V269.519L251.042 281.472L301.383 269.519V186.047H175.656Z" fill="#EDF5FF"/>
<path d="M155.152 167.446L163.392 197.801L160.574 200.49C146.568 213.86 123.865 213.86 109.859 200.49L107.041 197.801L115.28 167.446C121.479 169.681 128.197 170.906 135.216 170.906C142.235 170.906 148.953 169.681 155.152 167.446Z" fill="#FFAA9A"/>
<path d="M155.152 167.446C148.953 169.681 142.235 170.906 135.216 170.906C128.198 170.906 121.48 169.681 115.28 167.446C96.8287 160.776 82.9982 145.124 79.6481 126.082H78.8654C68.4909 126.082 60.0823 118.055 60.0823 108.152C60.0823 98.2489 68.4909 90.2225 78.8654 90.2225V78.2695H191.566V90.2225C201.941 90.2225 210.35 98.2489 210.35 108.152C210.35 118.055 201.941 126.082 191.566 126.082H190.784C187.435 145.124 173.604 160.776 155.152 167.446Z" fill="#FFCDB2"/>
<path d="M238.526 215.731C245.444 215.731 251.048 221.079 251.048 227.684C251.048 234.288 245.444 239.636 238.526 239.636C231.607 239.636 226.003 234.288 226.003 227.684C226.003 221.079 231.607 215.731 238.526 215.731Z" fill="#D6E9FF"/>
<path d="M191.567 31.2042V78.2695H78.8661V31.2042L135.216 51.3748L191.567 31.2042Z" fill="#6451BD"/>
<path d="M191.567 31.2042L135.216 51.3748L78.866 31.2042L60.0829 24.4807L135.216 0.574219L210.35 24.4807L191.567 31.2042Z" fill="#8372CE"/>
<path d="M307.398 269.519V293.426H0.601562V269.519H13.1237H175.914H257.309H301.137H307.398Z" fill="#FF626D"/>
</g>
<defs>
<clipPath id="clip0_3_193">
<rect width="308" height="294" fill="white"/>
</clipPath>
</defs>
</svg>
