<svg width="324" height="306" viewBox="0 0 324 306" fill="none" xmlns="http://www.w3.org/2000/svg">
<path d="M249.81 197.843H74.1897C83.691 182.31 90.3333 165.456 93.8511 147.955C96.4839 134.791 97.3192 121.379 96.3381 108.027V62.0097C96.3381 46.1001 103.256 30.8421 115.57 19.5922C127.884 8.34242 144.585 2.02234 162 2.02234C179.415 2.02234 196.116 8.34242 208.43 19.5922C220.744 30.8421 227.662 46.1001 227.662 62.0097V99.9324C223.756 133.877 231.496 168.093 249.81 197.843Z" fill="#343C4A"/>
<path d="M283.222 290.218V229.69C283.222 223.195 281.225 216.83 277.46 211.32C273.695 205.81 268.312 201.377 261.924 198.525L196.855 169.474C194.726 168.524 192.932 167.046 191.677 165.21C190.421 163.373 189.756 161.252 189.756 159.087V139.408H134.245V159.087C134.245 161.252 133.579 163.374 132.324 165.21C131.069 167.047 129.275 168.524 127.145 169.475L62.077 198.526C55.6892 201.378 50.3063 205.811 46.5409 211.321C42.7756 216.83 40.7792 223.195 40.7791 229.69V290.219C40.7791 291.752 41.4458 293.223 42.6325 294.307C43.8193 295.391 45.4289 296 47.1072 296H276.894C278.572 296 280.182 295.391 281.369 294.307C282.555 293.223 283.222 291.752 283.222 290.219L283.222 290.218Z" fill="#FFAEDB"/>
<path d="M196.855 169.475C194.726 168.524 192.931 167.047 191.676 165.21C190.421 163.373 189.756 161.251 189.756 159.086V139.408H134.245V159.087C134.245 161.252 133.579 163.374 132.324 165.21C131.069 167.047 129.275 168.524 127.145 169.475L162 194.533L196.855 169.475Z" fill="#F9BEAC"/>
<path d="M189.756 159.087V139.408H134.245V157.999C138.982 162.505 144.667 166.088 150.96 168.534C157.252 170.98 164.021 172.238 170.859 172.232C178.741 172.239 186.515 170.566 193.563 167.344C192.359 166.269 191.402 164.984 190.748 163.566C190.094 162.148 189.757 160.625 189.756 159.087Z" fill="#E58A7B"/>
<path d="M111.14 113.626V78.8852C111.138 76.3452 112.218 73.9043 114.152 72.0798C116.087 70.2552 118.722 69.1904 121.501 69.1109C132.501 68.8064 143.41 67.185 153.948 64.2881C164.787 61.3038 175.136 56.9968 184.714 51.4838C185.535 51.0143 186.523 50.8507 187.473 51.0269C188.423 51.2031 189.263 51.7056 189.819 52.4308C194.377 58.3272 200.361 63.1856 207.305 66.6295C208.99 67.4699 210.395 68.7099 211.373 70.2188C212.351 71.7277 212.865 73.4496 212.861 75.2031V113.625C212.861 119.727 211.546 125.77 208.99 131.407C206.434 137.045 202.688 142.168 197.965 146.482C193.242 150.797 187.635 154.22 181.464 156.555C175.293 158.89 168.679 160.092 162 160.092C148.511 160.092 135.574 155.197 126.036 146.483C116.498 137.769 111.14 125.95 111.14 113.627V113.626Z" fill="#F9BEAC"/>
<path d="M191.811 198.448L201.388 171.498L196.855 169.475C195.145 168.71 193.646 167.601 192.471 166.232L162 194.534L179.224 203.115C180.366 203.679 181.63 204.005 182.926 204.071C184.222 204.136 185.518 203.939 186.721 203.493C187.924 203.047 189.004 202.364 189.884 201.491C190.764 200.619 191.422 199.58 191.811 198.449V198.448ZM122.588 171.509L132.088 198.468C132.473 199.603 133.129 200.646 134.008 201.522C134.887 202.398 135.968 203.085 137.172 203.533C138.376 203.982 139.675 204.181 140.974 204.117C142.272 204.052 143.54 203.726 144.684 203.161L162 194.534L131.517 166.246C130.343 167.609 128.849 168.712 127.144 169.475L122.588 171.509Z" fill="#E57FBC"/>
<path d="M162 225.179C164.796 225.179 167.062 223.108 167.062 220.554C167.062 218 164.796 215.929 162 215.929C159.204 215.929 156.938 218 156.938 220.554C156.938 223.108 159.204 225.179 162 225.179Z" fill="#E57FBC"/>
<path d="M162 253.507C164.796 253.507 167.062 251.437 167.062 248.882C167.062 246.328 164.796 244.257 162 244.257C159.204 244.257 156.938 246.328 156.938 248.882C156.938 251.437 159.204 253.507 162 253.507Z" fill="#E57FBC"/>
<path d="M162 281.835C164.796 281.835 167.062 279.765 167.062 277.21C167.062 274.656 164.796 272.585 162 272.585C159.204 272.585 156.938 274.656 156.938 277.21C156.938 279.765 159.204 281.835 162 281.835Z" fill="#E57FBC"/>
<path d="M312.293 194.464H220.138C214.895 194.464 210.646 198.347 210.646 203.136V287.328C210.646 292.117 214.895 295.999 220.138 295.999H312.293C317.535 295.999 321.785 292.117 321.785 287.328V203.136C321.785 198.347 317.535 194.464 312.293 194.464Z" fill="#F9F7F8"/>
<path d="M323.797 282V305.906H17V282H29.5221H192.313H273.708H317.536H323.797Z" fill="#FF626D"/>
</svg>
